RBDS015runT25_grf
version=1
nRows=18
nColumns=19
inDegrees=no
endheader
time	ground_force_r_vx	ground_force_r_vy	ground_force_r_vz	ground_force_r_px	ground_force_r_py	ground_force_r_pz	ground_force_r_mx	ground_force_r_my	ground_force_r_mz	ground_force_l_vx	ground_force_l_vy	ground_force_l_vz	ground_force_l_px	ground_force_l_py	ground_force_l_pz	ground_force_l_mx	ground_force_l_my	ground_force_l_mz
     14.99900000	   -130.00324139	   1666.97136422	    -44.00637886	      2.18566932	      0.00000000	      1.05926273	     -0.00000000	     16.18529994	     -0.00000000	      0.00000000	      0.00000000	      0.00000000	      0.00000000	      0.00000000	      0.00000000	      0.00000000	      0.00000000	      0.00000000
     15.00000000	   -126.27984632	   1668.79948783	    -44.99409852	      2.18350061	      0.00000000	      1.05939174	     -0.00000000	     16.09023417	     -0.00000000	      0.00000000	      0.00000000	      0.00000000	      0.00000000	      0.00000000	      0.00000000	      0.00000000	      0.00000000	      0.00000000
     15.00100000	   -122.53060595	   1669.74573773	    -45.93166822	      2.18135829	      0.00000000	      1.05952047	     -0.00000000	     15.97988772	     -0.00000000	      0.00000000	      0.00000000	      0.00000000	      0.00000000	      0.00000000	      0.00000000	      0.00000000	      0.00000000	      0.00000000
     15.00200000	   -118.78136557	   1670.69198763	    -46.86923792	      2.17921596	      0.00000000	      1.05964920	     -0.00000000	     15.86954126	     -0.00000000	      0.00000000	      0.00000000	      0.00000000	      0.00000000	      0.00000000	      0.00000000	      0.00000000	      0.00000000	      0.00000000
     15.00300000	   -115.03212520	   1671.63823753	    -47.80680763	      2.17707364	      0.00000000	      1.05977792	     -0.00000000	     15.75919481	     -0.00000000	      0.00000000	      0.00000000	      0.00000000	      0.00000000	      0.00000000	      0.00000000	      0.00000000	      0.00000000	      0.00000000
     15.00400000	   -111.28413747	   1671.97195404	    -48.70199683	      2.17494823	      0.00000000	      1.05990538	     -0.00000000	     15.63945321	     -0.00000000	      0.00000000	      0.00000000	      0.00000000	      0.00000000	      0.00000000	      0.00000000	      0.00000000	      0.00000000	      0.00000000
     15.00500000	   -107.53677607	   1671.99940386	    -49.57599577	      2.17283128	      0.00000000	      1.06003219	     -0.00000000	     15.51501405	     -0.00000000	      0.00000000	      0.00000000	      0.00000000	      0.00000000	      0.00000000	      0.00000000	      0.00000000	      0.00000000	      0.00000000
     15.00600000	   -103.78941467	   1672.02685367	    -50.44999472	      2.17071433	      0.00000000	      1.06015901	     -0.00000000	     15.39057488	     -0.00000000	      0.00000000	      0.00000000	      0.00000000	      0.00000000	      0.00000000	      0.00000000	      0.00000000	      0.00000000	      0.00000000
     15.00700000	   -100.04951052	   1671.73939885	    -51.29820749	      2.16860492	      0.00000000	      1.06028467	     -0.00000000	     15.26187391	     -0.00000000	      0.00000000	      0.00000000	      0.00000000	      0.00000000	      0.00000000	      0.00000000	      0.00000000	      0.00000000	      0.00000000
     15.00800000	    -96.32452084	   1670.82213476	    -52.09484790	      2.16651062	      0.00000000	      1.06040804	     -0.00000000	     15.12464933	     -0.00000000	      0.00000000	      0.00000000	      0.00000000	      0.00000000	      0.00000000	      0.00000000	      0.00000000	      0.00000000	      0.00000000
     15.00900000	    -92.59953117	   1669.90487067	    -52.89148832	      2.16441631	      0.00000000	      1.06053140	     -0.00000000	     14.98742474	     -0.00000000	      0.00000000	      0.00000000	      0.00000000	      0.00000000	      0.00000000	      0.00000000	      0.00000000	      0.00000000	      0.00000000
     15.01000000	    -88.87454149	   1668.98760658	    -53.68812873	      2.16232200	      0.00000000	      1.06065477	     -0.00000000	     14.85020015	     -0.00000000	      0.00000000	      0.00000000	      0.00000000	      0.00000000	      0.00000000	      0.00000000	      0.00000000	      0.00000000	      0.00000000
     15.01100000	    -85.18552734	   1667.11135480	    -54.39368044	      2.16024612	      0.00000000	      1.06077325	     -0.00000000	     14.70158151	     -0.00000000	      0.00000000	      0.00000000	      0.00000000	      0.00000000	      0.00000000	      0.00000000	      0.00000000	      0.00000000	      0.00000000
     15.01200000	    -81.49651318	   1665.23510301	    -55.09923215	      2.15817025	      0.00000000	      1.06089173	     -0.00000000	     14.55296287	     -0.00000000	      0.00000000	      0.00000000	      0.00000000	      0.00000000	      0.00000000	      0.00000000	      0.00000000	      0.00000000	      0.00000000
     15.01300000	    -77.80749902	   1663.35885123	    -55.80478386	      2.15609437	      0.00000000	      1.06101020	     -0.00000000	     14.40434422	     -0.00000000	      0.00000000	      0.00000000	      0.00000000	      0.00000000	      0.00000000	      0.00000000	      0.00000000	      0.00000000	      0.00000000
     15.01400000	    -74.14741522	   1660.84155631	    -56.44083512	      2.15402717	      0.00000000	      1.06112454	     -0.00000000	     14.24908771	     -0.00000000	      0.00000000	      0.00000000	      0.00000000	      0.00000000	      0.00000000	      0.00000000	      0.00000000	      0.00000000	      0.00000000
     15.01500000	    -70.50179660	   1658.00373983	    -57.04213615	      2.15196431	      0.00000000	      1.06123681	     -0.00000000	     14.09051226	     -0.00000000	      0.00000000	      0.00000000	      0.00000000	      0.00000000	      0.00000000	      0.00000000	      0.00000000	      0.00000000	      0.00000000
     15.01600000	    -66.85617798	   1655.16592334	    -57.64343719	      2.14990145	      0.00000000	      1.06134907	      0.00000000	     13.93193681	     -0.00000000	      0.00000000	      0.00000000	      0.00000000	      0.00000000	      0.00000000	      0.00000000	      0.00000000	      0.00000000	      0.00000000
